<svg xmlns="http://www.w3.org/2000/svg" viewBox="0 0 680 520" font-family="sans-serif">
  <rect width="680" height="520" fill="#ffffff"/>
  <text x="340" y="28" font-size="18" text-anchor="middle" fill="#0f172a">技能评测雷达 · skill-forge（本地基础版）</text>
  <text x="340" y="50" font-size="13" text-anchor="middle" fill="#475569">总分 85.6/100 · Global-Best 候选（需外网 benchmark + live-test） · 10 维自研尺（融合 TRACE + 云鼎安全检查）</text>
  <polygon points="340.0,214.0 361.2,220.9 374.2,238.9 374.2,261.1 361.2,279.1 340.0,286.0 318.8,279.1 305.8,261.1 305.8,238.9 318.8,220.9" fill="none" stroke="#cbd5e1" stroke-width="1"/><polygon points="340.0,178.0 382.3,191.8 408.5,227.8 408.5,272.2 382.3,308.2 340.0,322.0 297.7,308.2 271.5,272.2 271.5,227.8 297.7,191.8" fill="none" stroke="#cbd5e1" stroke-width="1"/><polygon points="340.0,142.0 403.5,162.6 442.7,216.6 442.7,283.4 403.5,337.4 340.0,358.0 276.5,337.4 237.3,283.4 237.3,216.6 276.5,162.6" fill="none" stroke="#cbd5e1" stroke-width="1"/><polygon points="340.0,106.0 424.6,133.5 477.0,205.5 477.0,294.5 424.6,366.5 340.0,394.0 255.4,366.5 203.0,294.5 203.0,205.5 255.4,133.5" fill="none" stroke="#cbd5e1" stroke-width="1"/><polygon points="340.0,70.0 445.8,104.4 511.2,194.4 511.2,305.6 445.8,395.6 340.0,430.0 234.2,395.6 168.8,305.6 168.8,194.4 234.2,104.4" fill="none" stroke="#cbd5e1" stroke-width="1"/>
  <line x1="340" y1="250" x2="340.0" y2="70.0" stroke="#cbd5e1" stroke-width="1"/><line x1="340" y1="250" x2="445.8" y2="104.4" stroke="#cbd5e1" stroke-width="1"/><line x1="340" y1="250" x2="511.2" y2="194.4" stroke="#cbd5e1" stroke-width="1"/><line x1="340" y1="250" x2="511.2" y2="305.6" stroke="#cbd5e1" stroke-width="1"/><line x1="340" y1="250" x2="445.8" y2="395.6" stroke="#cbd5e1" stroke-width="1"/><line x1="340" y1="250" x2="340.0" y2="430.0" stroke="#cbd5e1" stroke-width="1"/><line x1="340" y1="250" x2="234.2" y2="395.6" stroke="#cbd5e1" stroke-width="1"/><line x1="340" y1="250" x2="168.8" y2="305.6" stroke="#cbd5e1" stroke-width="1"/><line x1="340" y1="250" x2="168.8" y2="194.4" stroke="#cbd5e1" stroke-width="1"/><line x1="340" y1="250" x2="234.2" y2="104.4" stroke="#cbd5e1" stroke-width="1"/>
  <polygon points="340.0,70.0 445.8,104.4 511.2,194.4 511.2,305.6 361.2,279.1 340.0,322.0 234.2,395.6 168.8,305.6 168.8,194.4 234.2,104.4" fill="#3b82f6" fill-opacity="0.25" stroke="#1d4ed8" stroke-width="2"/>
  <text x="340.0" y="44.0" font-size="12" text-anchor="middle" fill="#1e293b" font-family="sans-serif">D1 触发精度·5</text><text x="461.1" y="83.3" font-size="12" text-anchor="start" fill="#1e293b" font-family="sans-serif">D2 范围纪律·5</text><text x="535.9" y="186.3" font-size="12" text-anchor="start" fill="#1e293b" font-family="sans-serif">D3 Token效率·5</text><text x="535.9" y="313.7" font-size="12" text-anchor="start" fill="#1e293b" font-family="sans-serif">D4 覆盖完整·5</text><text x="461.1" y="416.7" font-size="12" text-anchor="start" fill="#1e293b" font-family="sans-serif">D5 证据完整·1</text><text x="340.0" y="456.0" font-size="12" text-anchor="middle" fill="#1e293b" font-family="sans-serif">D6 差异化·2</text><text x="218.9" y="416.7" font-size="12" text-anchor="end" fill="#1e293b" font-family="sans-serif">D7 验证·5</text><text x="144.1" y="313.7" font-size="12" text-anchor="end" fill="#1e293b" font-family="sans-serif">D8 健壮性·5</text><text x="144.1" y="186.3" font-size="12" text-anchor="end" fill="#1e293b" font-family="sans-serif">D9 可维护性·5</text><text x="218.9" y="83.3" font-size="12" text-anchor="end" fill="#1e293b" font-family="sans-serif">D10 可审查性·5</text>
</svg>