<svg xmlns="http://www.w3.org/2000/svg" viewBox="0 0 760 720" font-family="-apple-system,Segoe UI,Microsoft YaHei,sans-serif">
<rect width="760" height="720" fill="#FFFFFF"/>
<text x="380" y="34" text-anchor="middle" font-size="20" font-weight="700" fill="#1A1A1A">统一凭据体系 · 安全稳定性实测对比雷达</text>
<text x="380" y="58" text-anchor="middle" font-size="13" fill="#666">本地实测（红）vs 企业级标准（蓝·参考）vs 行业基线（灰·参考）· 评分 1–5（5=完全满足）</text>

<polygon points="370.0,320.0 398.3,331.7 410.0,360.0 398.3,388.3 370.0,400.0 341.7,388.3 330.0,360.0 341.7,331.7" fill="none" stroke="#E3E3E3" stroke-width="1"/>
<polygon points="370.0,280.0 426.6,303.4 450.0,360.0 426.6,416.6 370.0,440.0 313.4,416.6 290.0,360.0 313.4,303.4" fill="none" stroke="#E3E3E3" stroke-width="1"/>
<polygon points="370.0,240.0 454.9,275.1 490.0,360.0 454.9,444.9 370.0,480.0 285.1,444.9 250.0,360.0 285.1,275.1" fill="none" stroke="#E3E3E3" stroke-width="1"/>
<polygon points="370.0,200.0 483.1,246.9 530.0,360.0 483.1,473.1 370.0,520.0 256.9,473.1 210.0,360.0 256.9,246.9" fill="none" stroke="#E3E3E3" stroke-width="1"/>
<polygon points="370.0,160.0 511.4,218.6 570.0,360.0 511.4,501.4 370.0,560.0 228.6,501.4 170.0,360.0 228.6,218.6" fill="none" stroke="#E3E3E3" stroke-width="1"/>
<line x1="370" y1="360" x2="370.0" y2="160.0" stroke="#E3E3E3" stroke-width="1"/>
<line x1="370" y1="360" x2="511.4" y2="218.6" stroke="#E3E3E3" stroke-width="1"/>
<line x1="370" y1="360" x2="570.0" y2="360.0" stroke="#E3E3E3" stroke-width="1"/>
<line x1="370" y1="360" x2="511.4" y2="501.4" stroke="#E3E3E3" stroke-width="1"/>
<line x1="370" y1="360" x2="370.0" y2="560.0" stroke="#E3E3E3" stroke-width="1"/>
<line x1="370" y1="360" x2="228.6" y2="501.4" stroke="#E3E3E3" stroke-width="1"/>
<line x1="370" y1="360" x2="170.0" y2="360.0" stroke="#E3E3E3" stroke-width="1"/>
<line x1="370" y1="360" x2="228.6" y2="218.6" stroke="#E3E3E3" stroke-width="1"/>

<!-- 行业基线 -->
<polygon points="370.0,280.0 426.6,303.4 490.0,360.0 426.6,416.6 370.0,440.0 285.1,444.9 250.0,360.0 285.1,275.1" fill="#9AA0A6" fill-opacity="0.10" stroke="#9AA0A6" stroke-width="2" stroke-linejoin="round"/>
<!-- 企业级标准 -->
<polygon points="370.0,160.0 483.1,246.9 570.0,360.0 483.1,473.1 370.0,560.0 228.6,501.4 170.0,360.0 228.6,218.6" fill="#4F7CFF" fill-opacity="0.12" stroke="#4F7CFF" stroke-width="2" stroke-linejoin="round"/>
<!-- 我们·实测 -->
<polygon points="370.0,160.0 511.4,218.6 570.0,360.0 511.4,501.4 370.0,560.0 228.6,501.4 170.0,360.0 228.6,218.6" fill="#E8543F" fill-opacity="0.22" stroke="#E8543F" stroke-width="3" stroke-linejoin="round"/>
<circle cx="370.0" cy="160.0" r="3.5" fill="#E8543F"/><circle cx="511.4" cy="218.6" r="3.5" fill="#E8543F"/><circle cx="570.0" cy="360.0" r="3.5" fill="#E8543F"/><circle cx="511.4" cy="501.4" r="3.5" fill="#E8543F"/><circle cx="370.0" cy="560.0" r="3.5" fill="#E8543F"/><circle cx="228.6" cy="501.4" r="3.5" fill="#E8543F"/><circle cx="170.0" cy="360.0" r="3.5" fill="#E8543F"/><circle cx="228.6" cy="218.6" r="3.5" fill="#E8543F"/>
<text x="370.0" y="126.0" text-anchor="middle" font-size="13" font-weight="600" fill="#333" dominant-baseline="middle">抗暴力破解</text>
<text x="535.5" y="194.5" text-anchor="start" font-size="13" font-weight="600" fill="#333" dominant-baseline="middle">防篡改审计</text>
<text x="604.0" y="360.0" text-anchor="start" font-size="13" font-weight="600" fill="#333" dominant-baseline="middle">授权时效强制</text>
<text x="535.5" y="525.5" text-anchor="start" font-size="13" font-weight="600" fill="#333" dominant-baseline="middle">抗重放</text>
<text x="370.0" y="594.0" text-anchor="middle" font-size="13" font-weight="600" fill="#333" dominant-baseline="middle">零知识边界</text>
<text x="204.5" y="525.5" text-anchor="end" font-size="13" font-weight="600" fill="#333" dominant-baseline="middle">解绑完整性</text>
<text x="136.0" y="360.0" text-anchor="end" font-size="13" font-weight="600" fill="#333" dominant-baseline="middle">并发稳定性</text>
<text x="204.5" y="194.5" text-anchor="end" font-size="13" font-weight="600" fill="#333" dominant-baseline="middle">边界容错</text>

<text x="380" y="92" text-anchor="middle" font-size="13" fill="#E8543F" font-weight="700">综合安全稳定性评分：5.00 / 5.00（全维度本地实测）</text>

<!-- legend -->
<rect x="120" y="688" width="12" height="12" rx="2" fill="#E8543F"/>
<text x="138" y="699" font-size="12" fill="#333">我们·本地实测</text>
<rect x="280" y="688" width="12" height="12" rx="2" fill="#4F7CFF"/>
<text x="298" y="699" font-size="12" fill="#333">企业级标准（参考）</text>
<rect x="470" y="688" width="12" height="12" rx="2" fill="#9AA0A6"/>
<text x="488" y="699" font-size="12" fill="#333">行业基线（参考）</text>

<text x="380" y="712" text-anchor="middle" font-size="11" fill="#999">行业基线与企业级标准为依据公开资料的参考水平，用于对照；红色数值由 credential_broker_security_test.py 本地闭环实测（零真实凭据）。</text>
</svg>
