<svg xmlns="http://www.w3.org/2000/svg" width="980.0" height="136.0" viewBox="-10.0 92.0 980.0 136.0" role="img" aria-label="Checkout Platform Head">
  <defs>
    <pattern id="grid" width="120" height="80" patternUnits="userSpaceOnUse">
      <path d="M 120 0 L 0 0 0 80" fill="none" stroke="#e5e7eb" stroke-width="1"/>
    </pattern>
  </defs>
  <rect x="-10.0" y="92.0" width="980.0" height="136.0" fill="#f8fafc"/>
  <g id="mode-backdrop">
    <rect x="-10.0" y="92.0" width="326.7" height="136.0" fill="#eef6ff" opacity="0.55"/>
    <line x1="316.7" y1="92.0" x2="316.7" y2="228.0" stroke="#cbd5e1" stroke-width="1" opacity="0.7"/>
    <text x="8.0" y="118.0" font-family="Inter, ui-sans-serif, system-ui, -apple-system, BlinkMacSystemFont, 'Segoe UI', sans-serif" font-size="11" font-weight="800" fill="#475569">ACTORS</text>
    <rect x="316.7" y="92.0" width="326.7" height="136.0" fill="#f6f8fb" opacity="0.55"/>
    <line x1="643.3" y1="92.0" x2="643.3" y2="228.0" stroke="#cbd5e1" stroke-width="1" opacity="0.7"/>
    <text x="334.7" y="118.0" font-family="Inter, ui-sans-serif, system-ui, -apple-system, BlinkMacSystemFont, 'Segoe UI', sans-serif" font-size="11" font-weight="800" fill="#475569">RUNTIME</text>
    <rect x="643.3" y="92.0" width="326.7" height="136.0" fill="#eef6ff" opacity="0.55"/>
    <line x1="970.0" y1="92.0" x2="970.0" y2="228.0" stroke="#cbd5e1" stroke-width="1" opacity="0.7"/>
    <text x="661.3" y="118.0" font-family="Inter, ui-sans-serif, system-ui, -apple-system, BlinkMacSystemFont, 'Segoe UI', sans-serif" font-size="11" font-weight="800" fill="#475569">PROOF</text>
    <rect x="0.0" y="194.0" width="95.0" height="22" rx="6" fill="#38bdf8" opacity="0.18" stroke="#38bdf8" stroke-width="1"/>
    <text x="13.0" y="209.0" font-family="Inter, ui-sans-serif, system-ui, -apple-system, BlinkMacSystemFont, 'Segoe UI', sans-serif" font-size="11" font-weight="800" fill="#38bdf8">SYSTEM MAP</text>
  </g>
  <g id="arrows">
    <path d="M 210.0 160.0 L 270.0 160.0" fill="none" stroke="#2563eb" stroke-width="3" stroke-linejoin="round" stroke-linecap="round"/>
    <polygon points="261.0,154.6 270.0,160.0 261.0,165.4" fill="#2563eb"/>
    <path d="M 450.0 160.0 L 508.5 160.0" fill="none" stroke="#475569" stroke-width="3" stroke-linejoin="round" stroke-linecap="round" stroke-dasharray="6 6"/>
    <polygon points="499.5,154.6 508.5,160.0 499.5,165.4" fill="#475569"/>
    <path d="M 691.5 160.0 L 750.0 160.0" fill="none" stroke="#16a34a" stroke-width="3" stroke-linejoin="round" stroke-linecap="round" stroke-dasharray="10 8"/>
    <polygon points="741.0,154.6 750.0,160.0 741.0,165.4" fill="#16a34a"/>
  </g>
  <g id="nodes">
    <g class="node-shape" data-node-id="web">
    <rect x="30.0" y="132.0" width="180.0" height="56.0" rx="12" fill="#ffffff" stroke="#1f2937" stroke-width="2"/>
    </g>
    <g class="node-shape" data-node-id="api">
    <rect x="270.0" y="132.0" width="180.0" height="56.0" rx="12" fill="#ffffff" stroke="#1f2937" stroke-width="2"/>
    </g>
    <g class="node-shape" data-node-id="fraud">
    <rect x="508.5" y="132.0" width="183.0" height="56.0" rx="12" fill="#ffffff" stroke="#1f2937" stroke-width="2"/>
    </g>
    <g class="node-shape" data-node-id="db">
    <path d="M 750.0 144.0 A 90.0 12.0 0 0 1 930.0 144.0 L 930.0 176.0 A 90.0 12.0 0 0 1 750.0 176.0 Z" fill="#f8fafc" stroke="#14532d" stroke-width="2"/>
    <ellipse cx="840.0" cy="144.0" rx="90.0" ry="12.0" fill="#f8fafc" stroke="#14532d" stroke-width="2"/>
    <path d="M 750.0 176.0 A 90.0 12.0 0 0 0 930.0 176.0" fill="none" stroke="#14532d" stroke-width="2"/>
    </g>
  </g>
  <g id="labels">
    <rect x="210.5" y="148.0" width="59.0" height="24.0" rx="6" fill="#dbeafe" stroke="#ffffff" stroke-width="2"/>
    <text x="240.0" y="164.0" text-anchor="middle" font-family="Inter, ui-sans-serif, system-ui, -apple-system, BlinkMacSystemFont, 'Segoe UI', sans-serif" font-size="12" font-weight="600" fill="#1d4ed8">submit</text>
    <rect x="452.2" y="148.0" width="54.0" height="24.0" rx="6" fill="#e2e8f0" stroke="#ffffff" stroke-width="2"/>
    <text x="479.2" y="164.0" text-anchor="middle" font-family="Inter, ui-sans-serif, system-ui, -apple-system, BlinkMacSystemFont, 'Segoe UI', sans-serif" font-size="12" font-weight="600" fill="#334155">score</text>
    <rect x="684.2" y="148.0" width="73.0" height="24.0" rx="6" fill="#dcfce7" stroke="#ffffff" stroke-width="2"/>
    <text x="720.8" y="164.0" text-anchor="middle" font-family="Inter, ui-sans-serif, system-ui, -apple-system, BlinkMacSystemFont, 'Segoe UI', sans-serif" font-size="12" font-weight="600" fill="#166534">approved</text>
    <text x="120.0" y="166.0" text-anchor="middle" font-family="Inter, ui-sans-serif, system-ui, -apple-system, BlinkMacSystemFont, 'Segoe UI', sans-serif" font-size="18" font-weight="600" fill="#111827">Web</text>
    <text x="360.0" y="166.0" text-anchor="middle" font-family="Inter, ui-sans-serif, system-ui, -apple-system, BlinkMacSystemFont, 'Segoe UI', sans-serif" font-size="18" font-weight="600" fill="#111827">Checkout API</text>
    <text x="600.0" y="166.0" text-anchor="middle" font-family="Inter, ui-sans-serif, system-ui, -apple-system, BlinkMacSystemFont, 'Segoe UI', sans-serif" font-size="18" font-weight="600" fill="#111827">Fraud Service</text>
    <rect x="633.5" y="140.0" width="48.0" height="18" rx="9" fill="#ecfeff" stroke="#0891b2" stroke-width="1"/>
    <text x="657.5" y="153.0" text-anchor="middle" font-family="Inter, ui-sans-serif, system-ui, -apple-system, BlinkMacSystemFont, 'Segoe UI', sans-serif" font-size="10" font-weight="700" fill="#0e7490">SRC 1</text>
    <text x="840.0" y="166.0" text-anchor="middle" font-family="Inter, ui-sans-serif, system-ui, -apple-system, BlinkMacSystemFont, 'Segoe UI', sans-serif" font-size="18" font-weight="600" fill="#14532d">Orders DB</text>
  </g>
</svg>
