<svg xmlns="http://www.w3.org/2000/svg" xmlns:xlink="http://www.w3.org/1999/xlink" version="1.1" data-diagram-type="ACTIVITY" style="width:192px;height:214px;background:#FFFFFF;" width="192px" height="214px" viewBox="0 0 192 214" zoomAndPan="magnify" preserveAspectRatio="none" contentStyleType="text/css"><?plantuml 1.2026.8beta1?><defs/><g font-family="sans-serif" lengthAdjust="spacing"><ellipse cx="94" cy="25" rx="10" ry="10" fill="#222" style="stroke:#222;stroke-width:1;"/><polygon points="80.081,55,107.919,55,119.919,67,107.919,79,80.081,79,68.081,67,80.081,55" fill="#F1F1F1" style="stroke:#181818;stroke-width:0.5;stroke-linejoin:miter;stroke-miterlimit:10;"/><text x="80.081" y="70.808" fill="#000" font-size="11" textLength="27.838">登录?</text><text x="49.073" y="64.406" fill="#000" font-size="11" textLength="19.008">yes</text><text x="119.919" y="64.406" fill="#000" font-size="11" textLength="13.702">no</text><rect x="16" y="89" width="68" height="33.969" fill="#F1F1F1" style="stroke:#181818;stroke-width:0.5;" rx="12.5" ry="12.5"/><text x="26" y="110.139" fill="#000" font-size="12" textLength="48">进入主页</text><rect x="104" y="89" width="68" height="33.969" fill="#F1F1F1" style="stroke:#181818;stroke-width:0.5;" rx="12.5" ry="12.5"/><text x="114" y="110.139" fill="#000" font-size="12" textLength="48">显示错误</text><polygon points="94,128.969,106,140.969,94,152.969,82,140.969,94,128.969" fill="#F1F1F1" style="stroke:#181818;stroke-width:0.5;stroke-linejoin:miter;stroke-miterlimit:10;"/><ellipse cx="94" cy="183.969" rx="11" ry="11" fill="none" style="stroke:#222;stroke-width:1;"/><ellipse cx="94" cy="183.969" rx="6" ry="6" fill="#222" style="stroke:#222;stroke-width:1;"/><line x1="68.081" y1="67" x2="50" y2="67" style="stroke:#181818;stroke-width:1;"/><line x1="50" y1="67" x2="50" y2="89" style="stroke:#181818;stroke-width:1;"/><polygon points="46,79,50,89,54,79,50,83" fill="#181818" style="stroke:#181818;stroke-width:1;stroke-linejoin:miter;stroke-miterlimit:10;"/><line x1="119.919" y1="67" x2="138.001" y2="67" style="stroke:#181818;stroke-width:1;"/><line x1="138.001" y1="67" x2="138.001" y2="89" style="stroke:#181818;stroke-width:1;"/><polygon points="134.001,79,138.001,89,142.001,79,138.001,83" fill="#181818" style="stroke:#181818;stroke-width:1;stroke-linejoin:miter;stroke-miterlimit:10;"/><line x1="50" y1="122.969" x2="50" y2="140.969" style="stroke:#181818;stroke-width:1;"/><line x1="50" y1="140.969" x2="82" y2="140.969" style="stroke:#181818;stroke-width:1;"/><polygon points="72,136.969,82,140.969,72,144.969,76,140.969" fill="#181818" style="stroke:#181818;stroke-width:1;stroke-linejoin:miter;stroke-miterlimit:10;"/><line x1="138.001" y1="122.969" x2="138.001" y2="140.969" style="stroke:#181818;stroke-width:1;"/><line x1="138.001" y1="140.969" x2="106" y2="140.969" style="stroke:#181818;stroke-width:1;"/><polygon points="116,136.969,106,140.969,116,144.969,112,140.969" fill="#181818" style="stroke:#181818;stroke-width:1;stroke-linejoin:miter;stroke-miterlimit:10;"/><line x1="94" y1="35" x2="94" y2="55" style="stroke:#181818;stroke-width:1;"/><polygon points="90,45,94,55,98,45,94,49" fill="#181818" style="stroke:#181818;stroke-width:1;stroke-linejoin:miter;stroke-miterlimit:10;"/><line x1="94" y1="152.969" x2="94" y2="172.969" style="stroke:#181818;stroke-width:1;"/><polygon points="90,162.969,94,172.969,98,162.969,94,166.969" fill="#181818" style="stroke:#181818;stroke-width:1;stroke-linejoin:miter;stroke-miterlimit:10;"/><?plantuml-src Aov9B2hXoanJq7W-S_VJlLFjDHLACbBp53GgKuirkHGKh5xid_sqTUcJ7RjVBjngpPMQKvoge96N3vPwDcFVyoMxNawP-MBzUg1KNafc6bTnINu10000?></g></svg>