<svg xmlns="http://www.w3.org/2000/svg" xmlns:xlink="http://www.w3.org/1999/xlink" version="1.1" data-diagram-type="SALT" style="width:126px;height:117px;background:#FFFFFF;" width="126px" height="117px" viewBox="0 0 126 117" zoomAndPan="magnify" preserveAspectRatio="none" contentStyleType="text/css"><?plantuml 1.2026.8beta1?><defs/><g font-family="sans-serif" lengthAdjust="spacing"><text x="6" y="17.139" fill="#000" font-size="12" textLength="48">登录窗口</text><rect x="8.5" y="24.469" width="76" height="17.969" fill="#EEE" style="stroke:#000;stroke-width:2.5;" rx="5" ry="5"/><text x="28.5" y="37.607" fill="#000" font-size="12" textLength="36">用户名</text><rect x="8.5" y="49.438" width="84" height="17.969" fill="#EEE" style="stroke:#000;stroke-width:2.5;" rx="5" ry="5"/><text x="38.5" y="62.576" fill="#000" font-size="12" textLength="24">密码</text><text x="26" y="83.045" fill="#000" font-size="12" textLength="36">记住我</text><rect x="8" y="73.891" width="10" height="10" fill="none" style="stroke:#000;stroke-width:1.5;"/><polygon points="9,77.906,12,80.906,19,71.906,12,78.906" fill="#000" style="stroke:#000;stroke-width:1.5;stroke-linejoin:miter;stroke-miterlimit:10;"/><rect x="8.5" y="90.375" width="108" height="17.969" fill="#EEE" style="stroke:#000;stroke-width:2.5;" rx="5" ry="5"/><text x="26.189" y="103.514" fill="#000" font-size="12" textLength="72.621">登录  ] [ 取消</text><line x1="5" y1="5" x2="120" y2="5" style="stroke:#000;stroke-width:1;"/><line x1="5" y1="111.844" x2="120" y2="111.844" style="stroke:#000;stroke-width:1;"/><line x1="5" y1="5" x2="5" y2="20.969" style="stroke:#000;stroke-width:1;"/><line x1="120" y1="20.969" x2="120" y2="45.938" style="stroke:#000;stroke-width:1;"/><line x1="120" y1="5" x2="120" y2="20.969" style="stroke:#000;stroke-width:1;"/><line x1="5" y1="86.875" x2="5" y2="111.844" style="stroke:#000;stroke-width:1;"/><line x1="5" y1="70.906" x2="5" y2="86.875" style="stroke:#000;stroke-width:1;"/><line x1="120" y1="86.875" x2="120" y2="111.844" style="stroke:#000;stroke-width:1;"/><line x1="5" y1="45.938" x2="5" y2="70.906" style="stroke:#000;stroke-width:1;"/><line x1="120" y1="70.906" x2="120" y2="86.875" style="stroke:#000;stroke-width:1;"/><line x1="5" y1="20.969" x2="5" y2="45.938" style="stroke:#000;stroke-width:1;"/><line x1="120" y1="45.938" x2="120" y2="70.906" style="stroke:#000;stroke-width:1;"/><?plantuml-src SoWkIImgAKxCAU6gZkDIK7W-S_VJlLEVhvh-j7yna1lzVCgAPntRdqxeLG23M93Oq_LjpnSqAYWW2KN4AhnOj-79tlvd7HD1V9X1G6aWvsd_j6VREe0gQxaSKlDImBPn6UeP6HYPwLaafPOa6W80?></g></svg>